<svg xmlns="http://www.w3.org/2000/svg" width="280" height="220" viewBox="0 0 280 220" fill="none" stroke-linecap="round" stroke-linejoin="round"><title>6CUN cytochrome c C-alpha trace with heme C and bound ligand</title><path d="M157.69,100.16L162.48,119.65" stroke="#428b96" stroke-width="3.4" opacity="0.43"/><path d="M162.48,119.65L160.63,138.85" stroke="#428b96" stroke-width="3.4" opacity="0.43"/><path d="M160.63,138.85L178.64,146.93" stroke="#428b96" stroke-width="3.4" opacity="0.45"/><path d="M165.86,97.63L157.69,100.16" stroke="#428b96" stroke-width="3.4" opacity="0.47"/><path d="M178.64,146.93L180.07,161.86" stroke="#428b96" stroke-width="3.4" opacity="0.49"/><path d="M179.21,113.44L165.86,97.63" stroke="#428b96" stroke-width="3.4" opacity="0.50"/><path d="M148.15,141.06L151.05,121.48" stroke="#428b96" stroke-width="3.4" opacity="0.51"/><path d="M129.58,190.60L149.00,184.72" stroke="#428b96" stroke-width="3.4" opacity="0.52"/><path d="M180.56,129.26L179.21,113.44" stroke="#428b96" stroke-width="3.4" opacity="0.52"/><path d="M180.07,161.86L163.37,153.53" stroke="#428b96" stroke-width="3.4" opacity="0.52"/><path d="M151.05,121.48L148.37,108.54" stroke="#428b96" stroke-width="3.4" opacity="0.52"/><path d="M163.37,153.53L148.15,141.06" stroke="#428b96" stroke-width="3.4" opacity="0.53"/><path d="M131.16,41.96L145.69,42.04" stroke="#428b96" stroke-width="3.4" opacity="0.53"/><path d="M124.79,204.00L129.58,190.60" stroke="#428b96" stroke-width="3.4" opacity="0.53"/><path d="M145.75,89.00L125.19,89.93" stroke="#428b96" stroke-width="3.4" opacity="0.53"/><path d="M148.37,108.54L145.75,89.00" stroke="#428b96" stroke-width="3.4" opacity="0.54"/><path d="M149.00,184.72L156.57,200.41" stroke="#428b96" stroke-width="3.4" opacity="0.54"/><path d="M192.70,145.32L180.56,129.26" stroke="#428b96" stroke-width="3.4" opacity="0.55"/><path d="M133.29,62.90L131.16,41.96" stroke="#428b96" stroke-width="3.4" opacity="0.55"/><path d="M153.58,59.53L133.29,62.90" stroke="#428b96" stroke-width="3.4" opacity="0.56"/><path d="M125.19,89.93L124.89,103.21" stroke="#428b96" stroke-width="3.4" opacity="0.56"/><path d="M211.62,138.91L192.70,145.32" stroke="#428b96" stroke-width="3.4" opacity="0.56"/><path d="M203.33,119.81L211.62,138.91" stroke="#428b96" stroke-width="3.4" opacity="0.57"/><path d="M134.10,191.18L124.79,204.00" stroke="#428b96" stroke-width="3.4" opacity="0.58"/><circle cx="122.81" cy="132.94" r="1.3" fill="#bd8770"/><path d="M105.39,186.54L122.37,175.54" stroke="#428b96" stroke-width="3.4" opacity="0.58"/><path d="M101.62,85.49L95.74,105.51" stroke="#428b96" stroke-width="3.4" opacity="0.58"/><path d="M122.37,175.54L134.10,191.18" stroke="#428b96" stroke-width="3.4" opacity="0.59"/><path d="M156.57,200.41L167.07,202.09" stroke="#428b96" stroke-width="3.4" opacity="0.59"/><path d="M124.91,135.40L122.81,132.94" stroke="#b67542" stroke-width="1.6" opacity="0.95"/><path d="M149.87,48.58L153.58,59.53" stroke="#428b96" stroke-width="3.4" opacity="0.59"/><path d="M161.21,163.18L164.04,170.17" stroke="#b67542" stroke-width="1.6" opacity="0.95"/><circle cx="149.88" cy="180.78" r="1.3" fill="#bd8770"/><path d="M154.40,160.78L147.33,164.51" stroke="#b67542" stroke-width="1.6" opacity="0.95"/><path d="M161.21,163.18L154.40,160.78" stroke="#b67542" stroke-width="1.6" opacity="0.95"/><path d="M194.67,122.12L203.33,119.81" stroke="#428b96" stroke-width="3.4" opacity="0.60"/><path d="M147.33,164.51L144.75,169.94" stroke="#b67542" stroke-width="1.6" opacity="0.95"/><path d="M132.94,135.89L124.91,135.40" stroke="#b67542" stroke-width="1.6" opacity="0.95"/><path d="M166.08,158.02L161.21,163.18" stroke="#b67542" stroke-width="1.6" opacity="0.95"/><path d="M149.54,176.59L149.88,180.78" stroke="#b67542" stroke-width="1.6" opacity="0.95"/><path d="M154.40,160.78L154.72,153.91" stroke="#b67542" stroke-width="1.6" opacity="0.95"/><path d="M124.91,135.40L120.42,137.01" stroke="#b67542" stroke-width="1.6" opacity="0.95"/><path d="M117.50,88.41L101.62,85.49" stroke="#428b96" stroke-width="3.4" opacity="0.61"/><path d="M173.43,158.48L166.08,158.02" stroke="#b67542" stroke-width="1.6" opacity="0.95"/><path d="M124.89,103.21L117.50,88.41" stroke="#428b96" stroke-width="3.4" opacity="0.61"/><path d="M144.75,169.94L149.54,176.59" stroke="#b67542" stroke-width="1.6" opacity="0.95"/><path d="M161.97,152.29L166.08,158.02" stroke="#b67542" stroke-width="1.6" opacity="0.95"/><path d="M173.43,158.48L178.03,154.01" stroke="#b67542" stroke-width="1.6" opacity="0.95"/><path d="M161.97,152.29L154.72,153.91" stroke="#b67542" stroke-width="1.6" opacity="0.95"/><circle cx="120.42" cy="137.01" r="1.3" fill="#bd8770"/><path d="M148.71,149.74L154.72,153.91" stroke="#b67542" stroke-width="1.6" opacity="0.95"/><path d="M134.95,139.64L132.94,135.89" stroke="#b67542" stroke-width="1.6" opacity="0.95"/><path d="M185.86,154.70L190.79,160.39" stroke="#b67542" stroke-width="1.6" opacity="0.95"/><circle cx="161.97" cy="152.29" r="1.3" fill="#876e77"/><path d="M190.79,160.39L195.58,165.02" stroke="#b67542" stroke-width="1.6" opacity="0.95"/><path d="M95.74,105.51L101.15,110.36" stroke="#428b96" stroke-width="3.4" opacity="0.62"/><path d="M111.21,189.60L105.39,186.54" stroke="#428b96" stroke-width="3.4" opacity="0.62"/><path d="M149.54,176.59L153.15,178.23" stroke="#b67542" stroke-width="1.6" opacity="0.95"/><path d="M185.86,154.70L178.03,154.01" stroke="#b67542" stroke-width="1.6" opacity="0.95"/><path d="M167.07,202.09L185.72,193.76" stroke="#428b96" stroke-width="3.4" opacity="0.62"/><path d="M148.71,149.74L149.10,142.82" stroke="#b67542" stroke-width="1.6" opacity="0.95"/><path d="M165.73,143.62L161.97,152.29" stroke="#b67542" stroke-width="1.6" opacity="0.95"/><path d="M175.82,147.73L178.03,154.01" stroke="#b67542" stroke-width="1.6" opacity="0.95"/><path d="M188.34,149.16L185.86,154.70" stroke="#b67542" stroke-width="1.6" opacity="0.95"/><path d="M196.71,96.40L213.85,95.44" stroke="#428b96" stroke-width="3.4" opacity="0.63"/><path d="M142.97,138.01L134.95,139.64" stroke="#b67542" stroke-width="1.6" opacity="0.95"/><circle cx="153.15" cy="178.23" r="1.3" fill="#bd8770"/><path d="M149.10,142.82L142.97,138.01" stroke="#b67542" stroke-width="1.6" opacity="0.95"/><path d="M155.57,139.62L149.10,142.82" stroke="#b67542" stroke-width="1.6" opacity="0.95"/><path d="M137.74,62.87L149.87,48.58" stroke="#428b96" stroke-width="3.4" opacity="0.63"/><circle cx="175.82" cy="147.73" r="1.3" fill="#876e77"/><path d="M165.73,143.62L175.82,147.73" stroke="#b67542" stroke-width="1.6" opacity="0.95"/><path d="M213.85,95.44L224.47,106.59" stroke="#428b96" stroke-width="3.4" opacity="0.63"/><circle cx="165.73" cy="143.62" r="3.1" fill="#ad6535"/><path d="M165.73,143.62L155.57,139.62" stroke="#b67542" stroke-width="1.6" opacity="0.95"/><circle cx="155.57" cy="139.62" r="1.3" fill="#876e77"/><path d="M175.82,147.73L182.02,144.78" stroke="#b67542" stroke-width="1.6" opacity="0.95"/><path d="M142.97,138.01L145.83,132.05" stroke="#b67542" stroke-width="1.6" opacity="0.95"/><path d="M182.02,144.78L188.34,149.16" stroke="#b67542" stroke-width="1.6" opacity="0.95"/><path d="M188.34,149.16L196.06,147.28" stroke="#b67542" stroke-width="1.6" opacity="0.95"/><path d="M155.57,139.62L153.61,132.89" stroke="#b67542" stroke-width="1.6" opacity="0.95"/><path d="M152.03,77.68L137.74,62.87" stroke="#428b96" stroke-width="3.4" opacity="0.64"/><path d="M165.73,143.62L169.50,134.84" stroke="#b67542" stroke-width="1.6" opacity="0.95"/><path d="M145.83,132.05L153.61,132.89" stroke="#b67542" stroke-width="1.6" opacity="0.95"/><path d="M145.83,132.05L141.73,125.35" stroke="#b67542" stroke-width="1.6" opacity="0.95"/><path d="M158.29,127.78L153.61,132.89" stroke="#b67542" stroke-width="1.6" opacity="0.95"/><path d="M182.30,138.41L182.02,144.78" stroke="#b67542" stroke-width="1.6" opacity="0.95"/><path d="M211.07,121.85L194.67,122.12" stroke="#428b96" stroke-width="3.4" opacity="0.65"/><path d="M166.39,65.11L152.03,77.68" stroke="#428b96" stroke-width="3.4" opacity="0.65"/><circle cx="169.50" cy="134.84" r="1.3" fill="#876e77"/><path d="M96.11,162.97L115.37,169.09" stroke="#428b96" stroke-width="3.4" opacity="0.65"/><path d="M169.50,134.84L165.66,128.44" stroke="#b67542" stroke-width="1.6" opacity="0.95"/><path d="M169.50,134.84L176.72,133.34" stroke="#b67542" stroke-width="1.6" opacity="0.95"/><path d="M158.29,127.78L165.66,128.44" stroke="#b67542" stroke-width="1.6" opacity="0.95"/><path d="M115.37,169.09L111.21,189.60" stroke="#428b96" stroke-width="3.4" opacity="0.65"/><path d="M182.30,138.41L176.72,133.34" stroke="#b67542" stroke-width="1.6" opacity="0.95"/><path d="M165.66,128.44L170.57,123.01" stroke="#b67542" stroke-width="1.6" opacity="0.95"/><path d="M196.68,68.84L215.58,74.04" stroke="#428b96" stroke-width="3.4" opacity="0.66"/><path d="M177.26,125.92L176.72,133.34" stroke="#b67542" stroke-width="1.6" opacity="0.95"/><path d="M224.47,106.59L211.07,121.85" stroke="#428b96" stroke-width="3.4" opacity="0.66"/><path d="M88.00,177.88L96.11,162.97" stroke="#428b96" stroke-width="3.4" opacity="0.66"/><path d="M170.57,123.01L177.26,125.92" stroke="#b67542" stroke-width="1.6" opacity="0.95"/><path d="M164.70,147.47L162.68,154.95" stroke="#b67542" stroke-width="1.6" opacity="0.95"/><path d="M170.57,123.01L168.16,115.34" stroke="#b67542" stroke-width="1.6" opacity="0.95"/><path d="M162.68,154.95L167.06,159.95" stroke="#b67542" stroke-width="1.6" opacity="0.95"/><circle cx="167.06" cy="159.95" r="1.3" fill="#bd8770"/><path d="M162.68,154.95L155.05,156.31" stroke="#b67542" stroke-width="1.6" opacity="0.95"/><path d="M177.26,125.92L184.42,122.26" stroke="#b67542" stroke-width="1.6" opacity="0.95"/><circle cx="155.05" cy="156.31" r="1.3" fill="#bd8770"/><path d="M155.05,156.31L152.36,163.69" stroke="#b67542" stroke-width="1.6" opacity="0.95"/><path d="M208.19,90.61L196.71,96.40" stroke="#428b96" stroke-width="3.4" opacity="0.67"/><path d="M165.67,143.61L164.70,147.47" stroke="#b67542" stroke-width="1.6" opacity="0.95"/><path d="M101.15,110.36L100.00,101.31" stroke="#428b96" stroke-width="3.4" opacity="0.68"/><path d="M188.64,71.33L196.68,68.84" stroke="#428b96" stroke-width="3.4" opacity="0.68"/><path d="M152.36,163.69L150.12,165.58" stroke="#b67542" stroke-width="1.6" opacity="0.95"/><path d="M215.58,74.04L208.19,90.61" stroke="#428b96" stroke-width="3.4" opacity="0.68"/><path d="M184.42,122.26L183.74,121.28" stroke="#b67542" stroke-width="1.6" opacity="0.95"/><path d="M154.49,62.92L166.39,65.11" stroke="#428b96" stroke-width="3.4" opacity="0.69"/><path d="M176.34,48.74L196.12,44.78" stroke="#428b96" stroke-width="3.4" opacity="0.69"/><path d="M99.43,172.86L88.00,177.88" stroke="#428b96" stroke-width="3.4" opacity="0.70"/><path d="M196.12,44.78L202.42,58.22" stroke="#428b96" stroke-width="3.4" opacity="0.71"/><path d="M125.00,16.00L141.23,28.01" stroke="#428b96" stroke-width="3.4" opacity="0.71"/><path d="M152.14,83.44L154.49,62.92" stroke="#428b96" stroke-width="3.4" opacity="0.71"/><path d="M172.88,85.54L152.14,83.44" stroke="#428b96" stroke-width="3.4" opacity="0.71"/><path d="M202.42,58.22L188.64,71.33" stroke="#428b96" stroke-width="3.4" opacity="0.72"/><path d="M172.08,22.21L187.76,25.46" stroke="#428b96" stroke-width="3.4" opacity="0.72"/><path d="M157.16,25.24L172.08,22.21" stroke="#428b96" stroke-width="3.4" opacity="0.72"/><path d="M141.23,28.01L157.16,25.24" stroke="#428b96" stroke-width="3.4" opacity="0.72"/><path d="M100.00,101.31L115.36,96.65" stroke="#428b96" stroke-width="3.4" opacity="0.72"/><path d="M113.94,126.36L131.04,117.33" stroke="#428b96" stroke-width="3.4" opacity="0.73"/><path d="M179.61,43.53L176.34,48.74" stroke="#428b96" stroke-width="3.4" opacity="0.73"/><path d="M106.68,21.41L125.00,16.00" stroke="#428b96" stroke-width="3.4" opacity="0.73"/><path d="M55.53,134.20L75.19,137.68" stroke="#428b96" stroke-width="3.4" opacity="0.73"/><path d="M125.43,170.08L130.18,185.96" stroke="#428b96" stroke-width="3.4" opacity="0.73"/><path d="M130.18,185.96L120.94,199.75" stroke="#428b96" stroke-width="3.4" opacity="0.73"/><path d="M174.72,72.80L172.88,85.54" stroke="#428b96" stroke-width="3.4" opacity="0.74"/><path d="M142.80,142.33L161.14,134.11" stroke="#428b96" stroke-width="3.4" opacity="0.74"/><path d="M75.19,137.68L82.90,123.37" stroke="#428b96" stroke-width="3.4" opacity="0.74"/><path d="M131.04,117.33L140.02,115.56" stroke="#428b96" stroke-width="3.4" opacity="0.74"/><path d="M103.81,188.99L99.43,172.86" stroke="#428b96" stroke-width="3.4" opacity="0.75"/><path d="M187.76,25.46L179.61,43.53" stroke="#428b96" stroke-width="3.4" opacity="0.75"/><path d="M120.94,199.75L103.81,188.99" stroke="#428b96" stroke-width="3.4" opacity="0.76"/><path d="M136.00,135.14L142.80,142.33" stroke="#428b96" stroke-width="3.4" opacity="0.76"/><path d="M112.70,112.11L113.94,126.36" stroke="#428b96" stroke-width="3.4" opacity="0.76"/><path d="M152.82,165.32L150.19,184.96" stroke="#428b96" stroke-width="3.4" opacity="0.76"/><path d="M117.68,33.14L106.68,21.41" stroke="#428b96" stroke-width="3.4" opacity="0.76"/><path d="M115.36,96.65L112.70,112.11" stroke="#428b96" stroke-width="3.4" opacity="0.77"/><path d="M132.64,180.18L125.43,170.08" stroke="#428b96" stroke-width="3.4" opacity="0.78"/><path d="M160.32,83.96L174.72,72.80" stroke="#428b96" stroke-width="3.4" opacity="0.78"/><path d="M161.14,134.11L160.65,138.95" stroke="#428b96" stroke-width="3.4" opacity="0.78"/><path d="M204.78,150.85L199.52,145.85" stroke="#428b96" stroke-width="3.4" opacity="0.78"/><path d="M140.02,115.56L136.00,135.14" stroke="#428b96" stroke-width="3.4" opacity="0.78"/><path d="M151.11,157.36L152.82,165.32" stroke="#428b96" stroke-width="3.4" opacity="0.78"/><path d="M112.78,53.23L117.68,33.14" stroke="#428b96" stroke-width="3.4" opacity="0.79"/><path d="M150.19,184.96L132.64,180.18" stroke="#428b96" stroke-width="3.4" opacity="0.79"/><path d="M170.67,101.46L160.32,83.96" stroke="#428b96" stroke-width="3.4" opacity="0.79"/><path d="M82.90,123.37L72.88,132.03" stroke="#428b96" stroke-width="3.4" opacity="0.79"/><path d="M188.19,93.46L170.67,101.46" stroke="#428b96" stroke-width="3.4" opacity="0.79"/><path d="M80.54,150.72L99.60,142.37" stroke="#428b96" stroke-width="3.4" opacity="0.80"/><path d="M72.88,132.03L80.54,150.72" stroke="#428b96" stroke-width="3.4" opacity="0.81"/><path d="M199.52,145.85L194.18,125.74" stroke="#428b96" stroke-width="3.4" opacity="0.81"/><path d="M160.65,138.95L151.11,157.36" stroke="#428b96" stroke-width="3.4" opacity="0.81"/><path d="M105.87,62.50L112.78,53.23" stroke="#428b96" stroke-width="3.4" opacity="0.81"/><path d="M99.60,142.37L97.55,133.82" stroke="#428b96" stroke-width="3.4" opacity="0.82"/><path d="M179.02,87.57L188.19,93.46" stroke="#428b96" stroke-width="3.4" opacity="0.83"/><path d="M194.18,125.74L188.46,114.72" stroke="#428b96" stroke-width="3.4" opacity="0.84"/><path d="M112.73,82.07L105.87,62.50" stroke="#428b96" stroke-width="3.4" opacity="0.84"/><path d="M102.66,96.68L112.73,82.07" stroke="#428b96" stroke-width="3.4" opacity="0.86"/><path d="M169.73,106.20L179.02,87.57" stroke="#428b96" stroke-width="3.4" opacity="0.86"/><path d="M188.46,114.72L169.73,106.20" stroke="#428b96" stroke-width="3.4" opacity="0.86"/><path d="M108.73,160.96L120.47,145.50" stroke="#428b96" stroke-width="3.4" opacity="0.87"/><path d="M97.55,133.82L91.93,151.70" stroke="#428b96" stroke-width="3.4" opacity="0.87"/><path d="M91.93,151.70L108.73,160.96" stroke="#428b96" stroke-width="3.4" opacity="0.87"/><path d="M105.98,116.17L102.66,96.68" stroke="#428b96" stroke-width="3.4" opacity="0.88"/><path d="M125.99,120.07L105.98,116.17" stroke="#428b96" stroke-width="3.4" opacity="0.89"/><path d="M120.47,145.50L132.46,138.37" stroke="#428b96" stroke-width="3.4" opacity="0.89"/><path d="M132.46,138.37L125.99,120.07" stroke="#428b96" stroke-width="3.4" opacity="0.89"/></svg>
